# xmcd CD database file
#
# Track frame offsets:
#	150
#	11711
#	28565
#	41147
#	56426
#	70968
#	88331
#	103673
#	124966
#	138912
#	157075
#	168003
#	188353
#	206532
#	222360
#	251929
#
# Disc length: 3811 seconds
#
# Revision: 0
# Processed by: cddbd v1.5.1PL0 Copyright (c) Steve Scherf et al.
# Submitted via: CDex 1.51
#
DISCID=e60ee110
DTITLE=Miles Davis - Conception CD2/2
DYEAR=2003
DGENRE=Jazz
TTITLE0=Budo
TTITLE1=Ray's Idea
TTITLE2=Deception
TTITLE3=Enigma
TTITLE4=Rouge
TTITLE5=Tempus Fugit
TTITLE6=Darn That Dream
TTITLE7=Weirdo
TTITLE8=Hibeck
TTITLE9=It Never Entered My Mind
TTITLE10=Yesterdays
TTITLE11=The Leap
TTITLE12=Conception
TTITLE13=I Waited For You
TTITLE14=My Old Flame
TTITLE15=Dig
EXTD=YEAR: 2003
EXTT0=
EXTT1=
EXTT2=
EXTT3=
EXTT4=
EXTT5=
EXTT6=
EXTT7=
EXTT8=
EXTT9=
EXTT10=
EXTT11=
EXTT12=
EXTT13=
EXTT14=
EXTT15=
PLAYORDER=
